<svg width="316" height="147" fill="none" xmlns="http://www.w3.org/2000/svg"><path opacity=".2" fill-rule="evenodd" clip-rule="evenodd" d="M86.031 113.75h15.375V86.844H86.031V1.906h-34.69L.062 86.57v27.181h53.813V143h32.156v-29.25zM53.875 42.31v44.534H28.051L53.875 42.31zm116.565 66.076l-.002.007-.003.007c-1.095 3.709-2.723 6.204-4.708 7.783-1.964 1.562-4.547 2.442-7.977 2.442-3.428 0-6.036-.88-8.037-2.453-2.023-1.589-3.693-4.096-4.847-7.808-2.43-7.884-3.71-19.498-3.71-35.02 0-16.305 1.286-28.04 3.697-35.447 1.14-3.505 2.791-5.876 4.806-7.388 2.005-1.503 4.632-2.353 8.091-2.353 3.461 0 6.064.85 8.03 2.343 1.976 1.5 3.584 3.858 4.667 7.357l.003.01.003.01c2.355 7.418 3.609 19.16 3.609 35.468 0 15.526-1.249 27.149-3.622 35.042zm-51.763 18.291l.006.01c7.669 13.285 20.979 19.688 39.067 19.688 18.084 0 31.368-6.402 38.975-19.692 7.375-12.777 10.9-30.664 10.9-53.34 0-22.676-3.525-40.59-10.896-53.426C189.126 6.564 175.842.125 157.75.125c-18.095 0-31.404 6.44-39.07 19.787l-.006.01c-7.305 12.834-10.799 30.745-10.799 53.422 0 22.675 3.493 40.559 10.802 53.333zm181.104-12.927h15.375V86.844h-15.375V1.906h-34.69L213.812 86.57v27.181h53.813V143h32.156v-29.25zm-32.156-71.44v44.534h-25.824l25.824-44.534z" fill="#F9F9F9"/></svg>