<svg width="24" height="24" fill="none" xmlns="http://www.w3.org/2000/svg"><path d="M12 9.596L8.96 6.555 8.606 6.2l-.353.354-1.698 1.698-.354.353.354.354L9.596 12l-3.041 3.04-.354.354.354.353 1.698 1.698.353.354.354-.354L12 14.404l3.04 3.041.354.354.353-.354 1.698-1.698.354-.354-.354-.353L14.404 12l3.041-3.04.354-.354-.354-.353-1.698-1.698-.354-.354-.353.354L12 9.596zM12 23.5C5.649 23.5.5 18.352.5 12 .5 5.649 5.649.5 12 .5 18.352.5 23.5 5.649 23.5 12c0 6.352-5.148 11.5-11.5 11.5z" fill="#F9F9F9" stroke="#F9F9F9"/></svg>