<svg width="6812" height="4140" fill="none" xmlns="http://www.w3.org/2000/svg"><path d="M1163.02 55.048h1372.05V393H1266.59c-516.877 0-935.887 419.009-935.887 935.881v2390.28h991.567c487.98 0 883.56-395.58 883.56-883.56v-667.94h337.96v782.09c0 611.58-495.79 1107.37-1107.37 1107.37H.433V1217.64C.433 575.557 520.941 55.048 1163.02 55.048z" fill="#fff"/><path d="M2532.46 785.124V499.835H1296.89c-475.143 0-860.319 385.176-860.319 860.315v2259.86h871.419c436.62 0 790.56-353.95 790.56-790.56v-655.07h-295.02v690.92c0 272.88-221.22 494.1-494.1 494.1H704.021V1412.92c0-346.72 281.074-627.796 627.799-627.796h1200.64z" fill="#fff"/><path fill-rule="evenodd" clip-rule="evenodd" d="M1296.89 501.289c-474.34 0-858.866 384.525-858.866 858.861v2258.41h869.966c435.82 0 789.11-353.3 789.11-789.11v-653.62h-292.12v689.47c0 273.69-221.87 495.55-495.55 495.55H702.567V1412.92c0-347.52 281.726-629.249 629.253-629.249h1199.19V501.289H1296.89zM435.118 1360.15c0-475.941 385.827-861.768 861.772-861.768h1237.03v288.196h-1202.1c-345.922 0-626.346 280.422-626.346 626.342v1945.03h603.956c272.08 0 492.64-220.57 492.64-492.65v-692.38h297.94v656.53c0 437.42-354.6 792.01-792.02 792.01H435.118V1360.15z" fill="#fff"/><path d="M2531.26 1181.12V910.68H1341.48c-282.52 0-511.54 229.02-511.54 511.54v1814.25h484.88c218.31 0 395.28-176.97 395.28-395.28v-656.98h-265.52v631.14c0 64.21-52.05 116.26-116.26 116.26h-203.35V1387.48c0-113.97 92.39-206.36 206.36-206.36h1199.93z" fill="#fff"/><path fill-rule="evenodd" clip-rule="evenodd" d="M1341.48 912.133c-281.71 0-510.087 228.377-510.087 510.087v1812.8h483.427c217.51 0 393.83-176.32 393.83-393.83v-655.53h-262.62v629.69c0 65.01-52.7 117.72-117.71 117.72h-204.81V1387.48c0-114.77 93.04-207.81 207.82-207.81h1198.48V912.133H1341.48zM828.487 1422.22c0-283.32 229.673-512.993 512.993-512.993h1191.23v273.343H1331.33c-113.17 0-204.91 91.74-204.91 204.91v1542.68h201.9c63.41 0 114.81-51.4 114.81-114.81v-632.59h268.43v658.43c0 219.11-177.63 396.74-396.74 396.74H828.487V1422.22z" fill="#fff"/><path d="M1917.41 1426.82h-346.63v182.35h153.95c55.1 0 103.14 9.47 144.12 28.41 40.98 18.94 72.15 45.81 93.5 80.59 21.35 34.78 32.03 75.08 32.03 120.88 0 70.25-23.93 126.73-71.8 169.44-47.53 42.7-112.45 64.4-194.75 65.09h-287.74v-752.14h477.32v105.38zm-346.63 287.22v255.19h153.43c44.08 0 78.35-11.88 102.8-35.65 24.79-24.1 37.19-55.96 37.19-95.56 0-37.89-12.05-67.85-36.16-89.89-24.11-22.04-57.51-33.4-100.21-34.09h-157.05zm798.12.51l150.84-393.11h145.16l-261.91 624.03-23.76 47c-34.44 61.3-90.23 91.95-167.37 91.95l-53.72-3.09 1.03-103.32c8.26 1.38 22.9 2.07 43.91 2.07 37.19 0 63.37-15.85 78.52-47.53l26.86-63.54-257.26-547.57h142.58l175.12 393.11zm565.14-393.11l216.96 576.5 216.45-576.5h168.92v752.14h-130.18v-247.96l12.92-331.65-222.13 579.61h-93.5l-221.62-579.09 12.92 331.13v247.96H2764.6v-752.14h169.44zm1196.91 416.36h-308.91v231.43h361.09v104.35h-491.79v-752.14h488.17v105.38h-357.47v207.66h308.91v103.32zm289.29 56.31v279.47h-130.7v-752.14h287.74c84.03 0 150.67 21.87 199.91 65.6 49.6 43.74 74.39 101.6 74.39 173.57 0 73.7-24.28 131.04-72.84 172.02-48.21 40.99-115.88 61.48-203.01 61.48h-155.49zm0-104.87h157.04c46.49 0 81.96-10.85 106.41-32.54 24.45-22.04 36.68-53.73 36.68-95.05 0-40.64-12.4-73.01-37.19-97.12-24.8-24.45-58.89-37.02-102.29-37.71h-160.65v262.42zm875.08 209.22h-291.35l-60.95 175.12h-135.86l284.11-752.14h117.27l284.63 752.14H5356.8l-61.48-175.12zm-254.67-105.39h218l-109-312.01-109 312.01zm1135.44 280.51h-130.18v-334.23h-336.29v334.23h-130.7v-752.14h130.7v313.04h336.29v-313.04h130.18v752.14zM6812 1426.82h-347.14v646.76h-130.18v-752.14H6812v105.38z" fill="#fff"/></svg>