<svg width="16" height="16" fill="none" xmlns="http://www.w3.org/2000/svg"><path d="M15.344 11.116l-3.339-2.021a.707.707 0 00-.66-.042c-.796.357-1.384 1.042-1.701 1.724-.624-.271-1.645-.834-2.732-1.912C5.835 7.8 5.26 6.773 4.977 6.148c.676-.328 1.35-.924 1.696-1.726a.716.716 0 00-.049-.661L4.57.436a.715.715 0 00-.386-.304c-1.047-.341-2.175-.015-3.075.9C-1.125 3.3.123 8.18 3.89 11.913c2.411 2.39 5.335 3.817 7.82 3.817 1.281 0 2.347-.392 3.079-1.136.902-.915 1.215-2.042.86-3.095a.714.714 0 00-.306-.382zm-1.568 2.472c-.458.465-1.172.71-2.065.71-2.087 0-4.698-1.303-6.816-3.404C1.467 7.498.683 3.5 2.125 2.038c.39-.398.815-.608 1.224-.608.054 0 .109.004.164.01l1.68 2.718c-.324.459-.854.781-1.247.839a.715.715 0 00-.588.882c.02.08.52 1.99 2.553 4.004 2.03 2.016 3.94 2.493 4.021 2.512a.716.716 0 00.874-.6c.053-.395.367-.931.821-1.26l2.729 1.653c.083.578-.257 1.072-.58 1.4z" fill="#fff"/></svg>