<svg width="41" height="48" fill="none" xmlns="http://www.w3.org/2000/svg"><path d="M38.482 8.487v0h.008c.203 0 .347.144.347.347v.01c0 1.152 0 2.379.05 3.658v.015c.097 6.019.207 12.829-2.07 18.988-2.241 6.061-6.835 11.58-16.422 14.894a.786.786 0 01-.11.027s0 0 0 0a2.183 2.183 0 01-.076-.019l-.03-.008-.06-.015c-9.557-3.316-14.14-8.827-16.372-14.878-2.273-6.164-2.15-12.982-2.027-19.003.049-1.327.049-2.555.049-3.709v-.009c0-.202.144-.347.346-.347 7.361 0 13.126-2.133 17.905-6.759l.008-.007.008-.008a.34.34 0 01.243-.091.34.34 0 01.243.091l.008.008.007.007c4.78 4.626 10.543 6.758 17.945 6.808z" stroke="#fff" stroke-width="2.6"/><path d="M25.994 18.23l-7.992 7.992-3.439-3.439c-.63-.63-1.695-.63-2.373 0-.63.63-.63 1.695 0 2.373l4.601 4.602c.34.339.727.484 1.163.484.436 0 .872-.145 1.162-.484l9.203-9.203c.63-.63.63-1.695 0-2.373a1.624 1.624 0 00-2.325.048z" fill="#fff"/></svg>