<svg width="268" height="396" fill="none" xmlns="http://www.w3.org/2000/svg"><path d="M241.93 160.065c-42.791-24.207-84.902-65.803-119.881-118.99l-.34-.341c-34.98 12.274-77.09 5.114-119.881-20.116L.13 19.595l2.377 80.463c8.15 124.787 50.602 178.997 118.862 294.919l1.698 1.023c68.261-36.822 110.712-41.936 118.863-157.176l2.377-77.736-2.377-1.023z" fill="#4294CC"/><path d="M266.381 141.313C223.591 117.106 181.48 75.51 146.5 22.323l-.339-.341C111.181 34.256 69.07 27.096 26.28 1.866L24.58.843.81 19.595l1.019.682c42.79 25.23 84.901 32.39 119.881 20.116l.34.34c35.319 53.188 77.09 94.784 119.881 119.332l1.698 1.023-2.378 77.736c-5.433 75.349-25.13 103.647-57.393 124.445 40.074-23.866 75.732-58.302 81.506-142.856l2.377-77.736-1.359-1.364z" fill="#DFDFDF"/><path d="M267.74 142.336l-1.698-1.023c-42.791-24.207-84.902-65.803-119.881-118.99l-.34-.341-24.112 18.41.34.342c35.319 53.187 77.09 94.783 119.881 119.331l1.698 1.023 24.112-18.752z" fill="#CECECE"/><path d="M243.628 160.747l-2.377 77.736c-5.434 75.349-25.131 103.647-57.394 124.445 40.074-23.866 75.733-58.302 81.506-142.856l2.377-77.736-24.112 18.411z" fill="#1E3041"/><path d="M113.219 342.13c-52.639-87.964-79.468-132.287-85.92-229.116l-1.359-50.8c33.961 15.342 66.563 20.456 95.769 14.32 29.546 39.89 62.149 72.962 96.109 96.828l-1.358 49.096c-6.453 89.328-32.942 102.966-85.921 129.56-2.717 1.364-5.433 2.727-8.49 4.432-3.056-4.773-5.773-9.546-8.83-14.32z" fill="#1E3041"/><path fill-rule="evenodd" clip-rule="evenodd" d="M167.919 130.766c16.147 16.317 32.852 30.616 49.899 42.596l-1.282 46.348-125.268 85.479c-17.306-29.613-30.92-54.908-41.148-81.345l117.799-93.078zm-22.868-24.484a483.615 483.615 0 006.133 7.036L41.754 199.55a316.494 316.494 0 01-2.661-9.545l105.958-83.723z" fill="#2E4151"/><path d="M134.614 348.267c-2.716 1.364-5.433 2.728-8.49 4.433-2.717-4.774-5.773-9.547-8.49-13.979-52.978-88.646-79.468-132.969-85.92-229.457l-1.359-45.005c-1.358-.682-3.056-1.364-4.415-2.046l1.359 50.801c6.452 96.829 32.942 141.152 85.92 229.116 2.717 4.774 5.434 9.206 8.49 13.979 2.717-1.364 5.774-2.727 8.491-4.432 21.734-10.91 38.715-19.775 51.959-32.049-12.225 10.91-28.187 18.752-47.545 28.639z" fill="#111010"/><path d="M243.628 158.36c-42.79-24.207-84.902-65.802-119.881-118.99l-.34-.341c-34.98 12.274-77.09 5.114-119.88-20.116l-1.699 1.705c42.79 25.23 84.562 32.39 119.881 20.116l.34.34c34.979 52.847 77.091 94.443 119.881 118.991l1.698 1.023-2.377 77.736c-4.415 62.393-19.018 92.737-42.111 112.853 24.112-20.457 39.394-50.46 43.809-114.558l2.377-77.736-1.698-1.023z" fill="#272727"/></svg>