<svg width="104" height="24" fill="none" xmlns="http://www.w3.org/2000/svg"><g clip-path="url(#clip0)"><circle cx="12" cy="12" r="12" transform="rotate(-180 12 12)" fill="#000"/><path d="M12 1.532C6.219 1.532 1.532 6.22 1.532 12c0 5.782 4.687 10.468 10.468 10.468V1.532z" fill="#fff"/><path d="M12 22.468c5.781 0 10.468-4.687 10.468-10.468 0-5.782-4.687-10.47-10.468-10.47v20.937zm0-15.319a4.851 4.851 0 100 9.702V7.15z" fill="#000"/><path d="M12 16.85a4.851 4.851 0 100-9.701v9.702z" fill="#fff"/></g><path d="M34.88 8.392h-2.856v-.96h6.852v.96H36.02V16h-1.14V8.392zm7.419 7.74c-.496 0-.932-.08-1.308-.24a2.531 2.531 0 01-.924-.672 2.927 2.927 0 01-.564-1.032c-.12-.4-.18-.836-.18-1.308 0-.464.072-.892.216-1.284.144-.4.344-.744.6-1.032.264-.288.572-.512.924-.672.36-.16.752-.24 1.176-.24.552 0 1.008.116 1.368.348.368.224.66.512.876.864.224.352.376.736.456 1.152.088.416.124.812.108 1.188h-4.644c-.008.272.024.532.096.78.072.24.188.456.348.648.16.184.364.332.612.444.248.112.54.168.876.168.432 0 .784-.1 1.056-.3.28-.2.464-.504.552-.912h1.008c-.136.704-.436 1.232-.9 1.584-.464.344-1.048.516-1.752.516zm1.668-3.828a1.998 1.998 0 00-.168-.684 1.565 1.565 0 00-.372-.552 1.565 1.565 0 00-.552-.372 1.641 1.641 0 00-.696-.144c-.264 0-.504.048-.72.144a1.591 1.591 0 00-.54.372 1.79 1.79 0 00-.36.564c-.088.208-.14.432-.156.672h3.564zm2.137-2.508h1.464l1.884 5.028h.024l1.884-5.028h1.464V16h-1.02v-4.92L49.932 16h-.936l-1.872-4.92V16h-1.02V9.796zm8.262 0h1.02v2.472h3.144V9.796h1.02V16h-1.02v-2.856h-3.144V16h-1.02V9.796zm8.43 6.336a3.16 3.16 0 01-.791-.096 1.823 1.823 0 01-.66-.288 1.626 1.626 0 01-.444-.54 1.897 1.897 0 01-.157-.804c0-.352.06-.64.18-.864a1.54 1.54 0 01.468-.54c.2-.144.424-.252.672-.324a8.64 8.64 0 01.78-.18c.28-.056.544-.096.792-.12.256-.032.48-.072.672-.12.192-.056.344-.132.456-.228.112-.104.169-.252.169-.444 0-.224-.045-.404-.133-.54a.81.81 0 00-.323-.312 1.261 1.261 0 00-.445-.144 3.232 3.232 0 00-.48-.036c-.431 0-.791.084-1.08.252-.288.16-.444.468-.468.924h-1.02c.017-.384.096-.708.24-.972.145-.264.337-.476.577-.636.24-.168.511-.288.816-.36a4.42 4.42 0 01.995-.108c.28 0 .556.02.828.06.28.04.532.124.757.252a1.4 1.4 0 01.54.516c.136.224.204.516.204.876v3.192c0 .24.011.416.035.528.032.112.129.168.288.168.073 0 .177-.02.313-.06v.792c-.177.104-.42.156-.733.156-.263 0-.475-.072-.635-.216-.153-.152-.228-.396-.228-.732-.28.336-.608.58-.984.732a3.265 3.265 0 01-1.2.216zm.229-.888c.336 0 .623-.044.864-.132.24-.096.435-.212.587-.348.153-.144.264-.296.337-.456.072-.168.108-.324.108-.468v-1.044a1.122 1.122 0 01-.505.216c-.207.04-.427.076-.66.108l-.684.096c-.232.032-.44.088-.623.168a1.16 1.16 0 00-.456.348c-.113.144-.169.344-.169.6 0 .168.032.312.096.432.072.112.16.204.264.276.113.072.24.124.385.156.143.032.295.048.456.048zm5.809-1.668c-.44-.064-.8-.264-1.08-.6-.28-.336-.42-.76-.42-1.272 0-.584.172-1.048.516-1.392.352-.344.828-.516 1.428-.516h3.144V16h-1.02v-2.388h-1.356L68.15 16h-1.356l2.04-2.424zm2.568-.84v-2.04h-1.8c-.432 0-.744.092-.936.276-.192.184-.288.432-.288.744 0 .32.096.572.288.756.192.176.504.264.936.264h1.8zm7.397-2.04h-2.22v-.9h5.46v.9h-2.22V16H78.8v-5.304zm6.695 5.436c-.496 0-.932-.08-1.308-.24a2.531 2.531 0 01-.924-.672 2.927 2.927 0 01-.564-1.032c-.12-.4-.18-.836-.18-1.308 0-.464.072-.892.216-1.284.144-.4.344-.744.6-1.032.264-.288.572-.512.924-.672.36-.16.752-.24 1.176-.24.552 0 1.008.116 1.368.348.368.224.66.512.876.864.224.352.376.736.456 1.152.088.416.124.812.108 1.188h-4.644c-.008.272.024.532.096.78.072.24.188.456.348.648.16.184.364.332.612.444.248.112.54.168.876.168.432 0 .784-.1 1.056-.3.28-.2.464-.504.552-.912h1.008c-.136.704-.436 1.232-.9 1.584-.464.344-1.048.516-1.752.516zm1.668-3.828a1.998 1.998 0 00-.168-.684 1.565 1.565 0 00-.372-.552 1.565 1.565 0 00-.552-.372 1.641 1.641 0 00-.696-.144c-.264 0-.504.048-.72.144a1.591 1.591 0 00-.54.372 1.79 1.79 0 00-.36.564c-.088.208-.14.432-.156.672h3.564zm2.137-2.508h1.464l1.884 5.028h.024l1.884-5.028h1.464V16H95v-4.92L93.127 16h-.936l-1.872-4.92V16H89.3V9.796zm9.978 6.336a3.16 3.16 0 01-.792-.096 1.823 1.823 0 01-.66-.288 1.626 1.626 0 01-.444-.54 1.897 1.897 0 01-.156-.804c0-.352.06-.64.18-.864a1.54 1.54 0 01.468-.54c.2-.144.424-.252.672-.324.256-.072.516-.132.78-.18.28-.056.544-.096.792-.12.256-.032.48-.072.672-.12.192-.056.344-.132.456-.228.112-.104.168-.252.168-.444 0-.224-.044-.404-.132-.54a.81.81 0 00-.324-.312 1.261 1.261 0 00-.444-.144 3.232 3.232 0 00-.48-.036c-.432 0-.792.084-1.08.252-.288.16-.444.468-.468.924h-1.02c.016-.384.096-.708.24-.972s.336-.476.576-.636c.24-.168.512-.288.816-.36a4.42 4.42 0 01.996-.108c.28 0 .556.02.828.06.28.04.532.124.756.252.224.12.404.292.54.516.136.224.204.516.204.876v3.192c0 .24.012.416.036.528.032.112.128.168.288.168.072 0 .176-.02.312-.06v.792c-.176.104-.42.156-.732.156-.264 0-.476-.072-.636-.216-.152-.152-.228-.396-.228-.732-.28.336-.608.58-.984.732a3.265 3.265 0 01-1.2.216zm.228-.888c.336 0 .624-.044.864-.132.24-.096.436-.212.588-.348.152-.144.264-.296.336-.456.072-.168.108-.324.108-.468v-1.044a1.122 1.122 0 01-.504.216c-.208.04-.428.076-.66.108l-.684.096c-.232.032-.44.088-.624.168a1.16 1.16 0 00-.456.348c-.112.144-.168.344-.168.6 0 .168.032.312.096.432.072.112.16.204.264.276.112.072.24.124.384.156.144.032.296.048.456.048z" fill="#fff"/><defs><clipPath id="clip0"><path fill="#fff" transform="rotate(-180 12 12)" d="M0 0h24v24H0z"/></clipPath></defs></svg>