<svg width="109" height="24" fill="none" xmlns="http://www.w3.org/2000/svg"><circle cx="12" cy="12" r="12" fill="#000"/><path d="M12 22.468c5.781 0 10.468-4.687 10.468-10.468 0-5.782-4.687-10.47-10.468-10.47v20.937z" fill="#fff"/><path d="M12 1.532C6.219 1.532 1.532 6.22 1.532 12c0 5.782 4.687 10.468 10.468 10.468V1.532zm0 15.319a4.851 4.851 0 100-9.702v9.702z" fill="#000"/><path d="M12 7.149a4.851 4.851 0 100 9.702V7.15zm24.476 9.043c-.664 0-1.244-.112-1.74-.336a3.477 3.477 0 01-1.236-.948 4.125 4.125 0 01-.744-1.416 6.182 6.182 0 01-.24-1.752c0-.624.088-1.208.264-1.752a4.286 4.286 0 01.768-1.44 3.618 3.618 0 011.272-.96c.504-.24 1.088-.36 1.752-.36.448 0 .872.06 1.272.18s.756.296 1.068.528c.312.232.572.524.78.876.208.344.344.744.408 1.2h-1.14c-.128-.608-.412-1.064-.852-1.368-.432-.304-.948-.456-1.548-.456-.512 0-.952.096-1.32.288a2.64 2.64 0 00-.9.78 3.34 3.34 0 00-.516 1.104 4.963 4.963 0 00-.168 1.296c0 .488.056.952.168 1.392.112.432.284.812.516 1.14.24.32.544.576.912.768.368.192.808.288 1.32.288.368 0 .7-.06.996-.18a2.306 2.306 0 001.26-1.308 3.27 3.27 0 00.216-.984h1.14c-.112 1.088-.484 1.932-1.116 2.532-.624.592-1.488.888-2.592.888zm4.952-6.396h2.868c.272 0 .532.02.78.06.256.04.484.116.684.228.2.104.36.256.48.456s.18.456.18.768c0 .336-.08.608-.24.816-.16.208-.384.38-.672.516v.012c.36.072.644.24.852.504.216.264.324.604.324 1.02 0 .264-.048.508-.144.732a1.584 1.584 0 01-.384.576 1.93 1.93 0 01-.6.384A2.115 2.115 0 0144.8 16h-3.372V9.796zm3.18 5.34c.336 0 .588-.096.756-.288.176-.2.264-.448.264-.744 0-.28-.092-.504-.276-.672-.184-.168-.492-.252-.924-.252h-1.992v1.956h2.172zm-.42-2.796c.44 0 .744-.08.912-.24a.818.818 0 00.264-.636c0-.256-.084-.452-.252-.588-.168-.144-.476-.216-.924-.216h-1.752v1.68h1.752zm6.36 3.792c-.495 0-.931-.08-1.307-.24a2.531 2.531 0 01-.924-.672 2.927 2.927 0 01-.564-1.032c-.12-.4-.18-.836-.18-1.308 0-.464.072-.892.216-1.284.144-.4.344-.744.6-1.032.264-.288.572-.512.924-.672.36-.16.752-.24 1.176-.24.552 0 1.008.116 1.368.348.368.224.66.512.876.864.224.352.376.736.456 1.152.088.416.124.812.108 1.188h-4.644c-.008.272.024.532.096.78.072.24.188.456.348.648.16.184.364.332.612.444.248.112.54.168.876.168.432 0 .784-.1 1.056-.3.28-.2.464-.504.552-.912H53.2c-.136.704-.436 1.232-.9 1.584-.464.344-1.048.516-1.752.516zm1.669-3.828a1.998 1.998 0 00-.168-.684 1.565 1.565 0 00-.372-.552 1.565 1.565 0 00-.552-.372 1.641 1.641 0 00-.696-.144c-.264 0-.504.048-.72.144a1.591 1.591 0 00-.54.372 1.79 1.79 0 00-.36.564c-.088.208-.14.432-.156.672h3.564zm3.637-1.608h-2.22v-.9h5.46v.9h-2.22V16h-1.02v-5.304zm4.007 5.376c-.104 0-.212-.012-.324-.036a3.776 3.776 0 01-.276-.048v-.9a1.34 1.34 0 00.42.06.671.671 0 00.6-.312c.144-.208.248-.528.312-.96.072-.432.116-.984.132-1.656.016-.68.032-1.488.048-2.424h4.356V16h-1.02v-5.304h-2.352c-.024.728-.052 1.42-.084 2.076a9.209 9.209 0 01-.204 1.704c-.112.488-.292.876-.54 1.164-.248.288-.604.432-1.068.432zm8.525.06a3.16 3.16 0 01-.792-.096 1.823 1.823 0 01-.66-.288 1.626 1.626 0 01-.444-.54 1.897 1.897 0 01-.156-.804c0-.352.06-.64.18-.864a1.54 1.54 0 01.468-.54c.2-.144.424-.252.672-.324.256-.072.516-.132.78-.18.28-.056.544-.096.792-.12.256-.032.48-.072.672-.12.192-.056.344-.132.456-.228.112-.104.168-.252.168-.444 0-.224-.044-.404-.132-.54a.81.81 0 00-.324-.312 1.261 1.261 0 00-.444-.144 3.232 3.232 0 00-.48-.036c-.432 0-.792.084-1.08.252-.288.16-.444.468-.468.924h-1.02c.016-.384.096-.708.24-.972s.336-.476.576-.636c.24-.168.512-.288.816-.36a4.42 4.42 0 01.996-.108c.28 0 .556.02.828.06.28.04.532.124.756.252.224.12.404.292.54.516.136.224.204.516.204.876v3.192c0 .24.012.416.036.528.032.112.128.168.288.168.072 0 .176-.02.312-.06v.792c-.176.104-.42.156-.732.156-.264 0-.476-.072-.636-.216-.152-.152-.228-.396-.228-.732-.28.336-.608.58-.984.732a3.265 3.265 0 01-1.2.216zm.228-.888c.336 0 .624-.044.864-.132.24-.096.436-.212.588-.348.152-.144.264-.296.336-.456.072-.168.108-.324.108-.468v-1.044a1.122 1.122 0 01-.504.216c-.208.04-.428.076-.66.108l-.684.096c-.232.032-.44.088-.624.168a1.16 1.16 0 00-.456.348c-.112.144-.168.344-.168.6 0 .168.032.312.096.432.072.112.16.204.264.276.112.072.24.124.384.156.144.032.296.048.456.048zm5.81-1.668c-.44-.064-.8-.264-1.08-.6-.28-.336-.42-.76-.42-1.272 0-.584.172-1.048.516-1.392.352-.344.828-.516 1.428-.516h3.144V16h-1.02v-2.388h-1.356L73.74 16h-1.356l2.04-2.424zm2.568-.84v-2.04h-1.8c-.432 0-.744.092-.936.276-.192.184-.288.432-.288.744 0 .32.096.572.288.756.192.176.504.264.936.264h1.8zm7.397-2.04h-2.22v-.9h5.46v.9h-2.22V16h-1.02v-5.304zm6.695 5.436c-.496 0-.932-.08-1.308-.24a2.531 2.531 0 01-.924-.672 2.927 2.927 0 01-.564-1.032c-.12-.4-.18-.836-.18-1.308 0-.464.072-.892.216-1.284.144-.4.344-.744.6-1.032.264-.288.572-.512.924-.672.36-.16.752-.24 1.176-.24.552 0 1.008.116 1.368.348.368.224.66.512.876.864.224.352.376.736.456 1.152.088.416.124.812.108 1.188h-4.644c-.008.272.024.532.096.78.072.24.188.456.348.648.16.184.364.332.612.444.248.112.54.168.876.168.432 0 .784-.1 1.056-.3.28-.2.464-.504.552-.912h1.008c-.136.704-.436 1.232-.9 1.584-.464.344-1.048.516-1.752.516zm1.668-3.828a1.998 1.998 0 00-.168-.684 1.565 1.565 0 00-.372-.552 1.565 1.565 0 00-.552-.372 1.641 1.641 0 00-.696-.144c-.264 0-.504.048-.72.144a1.591 1.591 0 00-.54.372 1.79 1.79 0 00-.36.564c-.088.208-.14.432-.156.672h3.564zm2.137-2.508h1.464l1.884 5.028h.024l1.884-5.028h1.464V16h-1.02v-4.92L98.717 16h-.936l-1.872-4.92V16h-1.02V9.796zm9.978 6.336a3.16 3.16 0 01-.792-.096 1.823 1.823 0 01-.66-.288 1.626 1.626 0 01-.444-.54 1.897 1.897 0 01-.156-.804c0-.352.06-.64.18-.864a1.54 1.54 0 01.468-.54c.2-.144.424-.252.672-.324.256-.072.516-.132.78-.18.28-.056.544-.096.792-.12.256-.032.48-.072.672-.12.192-.056.344-.132.456-.228.112-.104.168-.252.168-.444 0-.224-.044-.404-.132-.54a.81.81 0 00-.324-.312 1.261 1.261 0 00-.444-.144 3.232 3.232 0 00-.48-.036c-.432 0-.792.084-1.08.252-.288.16-.444.468-.468.924h-1.02c.016-.384.096-.708.24-.972s.336-.476.576-.636c.24-.168.512-.288.816-.36a4.42 4.42 0 01.996-.108c.28 0 .556.02.828.06.28.04.532.124.756.252.224.12.404.292.54.516.136.224.204.516.204.876v3.192c0 .24.012.416.036.528.032.112.128.168.288.168.072 0 .176-.02.312-.06v.792c-.176.104-.42.156-.732.156-.264 0-.476-.072-.636-.216-.152-.152-.228-.396-.228-.732-.28.336-.608.58-.984.732a3.265 3.265 0 01-1.2.216zm.228-.888c.336 0 .624-.044.864-.132.24-.096.436-.212.588-.348.152-.144.264-.296.336-.456.072-.168.108-.324.108-.468v-1.044a1.122 1.122 0 01-.504.216c-.208.04-.428.076-.66.108l-.684.096c-.232.032-.44.088-.624.168a1.16 1.16 0 00-.456.348c-.112.144-.168.344-.168.6 0 .168.032.312.096.432.072.112.16.204.264.276.112.072.24.124.384.156.144.032.296.048.456.048z" fill="#fff"/></svg>