<svg width="316" height="147" viewBox="0 0 316 147" fill="none" xmlns="http://www.w3.org/2000/svg">
<path opacity="0.2" fill-rule="evenodd" clip-rule="evenodd" d="M86.0312 113.75H101.406V86.8438H86.0312V1.90625H51.3409L0.0625 86.5686V113.75H53.875V143H86.0312V113.75ZM53.875 42.3102V86.8438H28.0513L53.875 42.3102ZM170.44 108.386L170.438 108.393L170.435 108.4C169.34 112.109 167.712 114.604 165.727 116.183C163.763 117.745 161.18 118.625 157.75 118.625C154.322 118.625 151.714 117.745 149.713 116.172C147.69 114.583 146.02 112.076 144.866 108.364C142.436 100.48 141.156 88.8661 141.156 73.3438C141.156 57.0389 142.442 45.3049 144.853 37.897C145.993 34.3923 147.644 32.0208 149.659 30.5094C151.664 29.0062 154.291 28.1562 157.75 28.1562C161.211 28.1562 163.814 29.0067 165.78 30.499C167.756 31.999 169.364 34.3568 170.447 37.8558L170.45 37.8662L170.453 37.8765C172.808 45.2937 174.062 57.0366 174.062 73.3438C174.062 88.8701 172.813 100.493 170.44 108.386ZM118.677 126.677L118.683 126.687C126.352 139.972 139.662 146.375 157.75 146.375C175.834 146.375 189.118 139.973 196.725 126.683C204.1 113.906 207.625 96.0194 207.625 73.3438C207.625 50.6669 204.1 32.753 196.729 19.9168C189.126 6.56369 175.842 0.125 157.75 0.125C139.655 0.125 126.346 6.56507 118.68 19.9121L118.674 19.9222C111.369 32.7559 107.875 50.6672 107.875 73.3438C107.875 96.0188 111.368 113.903 118.677 126.677ZM299.781 113.75H315.156V86.8438H299.781V1.90625H265.091L213.812 86.5686V113.75H267.625V143H299.781V113.75ZM267.625 42.3103V86.8438H241.801L267.625 42.3103Z" fill="#F9F9F9"/>
</svg>
