<svg width="24" height="24" viewBox="0 0 24 24" fill="none" xmlns="http://www.w3.org/2000/svg">
<path d="M12 9.59597L8.96002 6.55491L8.60646 6.20123L8.25285 6.55485L6.55485 8.25285L6.20123 8.60646L6.55491 8.96002L9.59597 12L6.55491 15.04L6.20123 15.3935L6.55485 15.7472L8.25285 17.4452L8.60646 17.7988L8.96002 17.4451L12 14.404L15.04 17.4451L15.3935 17.7988L15.7472 17.4452L17.4452 15.7472L17.7988 15.3935L17.4451 15.04L14.404 12L17.4451 8.96002L17.7988 8.60646L17.4452 8.25285L15.7472 6.55485L15.3935 6.20123L15.04 6.55491L12 9.59597ZM12 23.5C5.64854 23.5 0.5 18.3515 0.5 12C0.5 5.64854 5.64854 0.5 12 0.5C18.3515 0.5 23.5 5.64854 23.5 12C23.5 18.3515 18.3515 23.5 12 23.5Z" fill="#F9F9F9" stroke="#F9F9F9"/>
</svg>
