<svg width="6812" height="4140" viewBox="0 0 6812 4140" fill="none" xmlns="http://www.w3.org/2000/svg">
<path d="M1163.02 55.0483H2535.07V392.999H1266.59C749.713 392.999 330.703 812.008 330.703 1328.88V3719.16H1322.27C1810.25 3719.16 2205.83 3323.58 2205.83 2835.6V2167.66H2543.79V2949.75C2543.79 3561.33 2048 4057.12 1436.42 4057.12H0.433105V1217.64C0.433105 575.557 520.941 55.0483 1163.02 55.0483Z" fill="white"/>
<path d="M2532.46 785.124V499.835H1296.89C821.747 499.835 436.571 885.011 436.571 1360.15V3620.01H1307.99C1744.61 3620.01 2098.55 3266.06 2098.55 2829.45V2174.38H1803.53V2865.3C1803.53 3138.18 1582.31 3359.4 1309.43 3359.4H704.021V1412.92C704.021 1066.2 985.095 785.124 1331.82 785.124H2532.46Z" fill="white"/>
<path fill-rule="evenodd" clip-rule="evenodd" d="M1296.89 501.289C822.55 501.289 438.024 885.814 438.024 1360.15V3618.56H1307.99C1743.81 3618.56 2097.1 3265.26 2097.1 2829.45V2175.83H1804.98V2865.3C1804.98 3138.99 1583.11 3360.85 1309.43 3360.85H702.567V1412.92C702.567 1065.4 984.293 783.671 1331.82 783.671H2531.01V501.289H1296.89ZM435.118 1360.15C435.118 884.209 820.945 498.382 1296.89 498.382H2533.92V786.578H1331.82C985.898 786.578 705.474 1067 705.474 1412.92V3357.95H1309.43C1581.51 3357.95 1802.07 3137.38 1802.07 2865.3V2172.92H2100.01V2829.45C2100.01 3266.87 1745.41 3621.46 1307.99 3621.46H435.118V1360.15Z" fill="white"/>
<path d="M2531.26 1181.12V910.68H1341.48C1058.96 910.68 829.94 1139.7 829.94 1422.22V3236.47H1314.82C1533.13 3236.47 1710.1 3059.5 1710.1 2841.19V2184.21H1444.58V2815.35C1444.58 2879.56 1392.53 2931.61 1328.32 2931.61H1124.97V1387.48C1124.97 1273.51 1217.36 1181.12 1331.33 1181.12H2531.26Z" fill="white"/>
<path fill-rule="evenodd" clip-rule="evenodd" d="M1341.48 912.133C1059.77 912.133 831.393 1140.51 831.393 1422.22V3235.02H1314.82C1532.33 3235.02 1708.65 3058.7 1708.65 2841.19V2185.66H1446.03V2815.35C1446.03 2880.36 1393.33 2933.07 1328.32 2933.07H1123.51V1387.48C1123.51 1272.71 1216.55 1179.67 1331.33 1179.67H2529.81V912.133H1341.48ZM828.487 1422.22C828.487 1138.9 1058.16 909.227 1341.48 909.227H2532.71V1182.57H1331.33C1218.16 1182.57 1126.42 1274.31 1126.42 1387.48V2930.16H1328.32C1391.73 2930.16 1443.13 2878.76 1443.13 2815.35V2182.76H1711.56V2841.19C1711.56 3060.3 1533.93 3237.93 1314.82 3237.93H828.487V1422.22Z" fill="white"/>
<path d="M1917.41 1426.82H1570.78V1609.17H1724.73C1779.83 1609.17 1827.87 1618.64 1868.85 1637.58C1909.83 1656.52 1941 1683.39 1962.35 1718.17C1983.7 1752.95 1994.38 1793.25 1994.38 1839.05C1994.38 1909.3 1970.45 1965.78 1922.58 2008.49C1875.05 2051.19 1810.13 2072.89 1727.83 2073.58H1440.09V1321.44H1917.41V1426.82ZM1570.78 1714.04V1969.23H1724.21C1768.29 1969.23 1802.56 1957.35 1827.01 1933.58C1851.8 1909.48 1864.2 1877.62 1864.2 1838.02C1864.2 1800.13 1852.15 1770.17 1828.04 1748.13C1803.93 1726.09 1770.53 1714.73 1727.83 1714.04H1570.78Z" fill="white"/>
<path d="M2368.9 1714.55L2519.74 1321.44H2664.9L2402.99 1945.47L2379.23 1992.47C2344.79 2053.77 2289 2084.42 2211.86 2084.42L2158.14 2081.33L2159.17 1978.01C2167.43 1979.39 2182.07 1980.08 2203.08 1980.08C2240.27 1980.08 2266.45 1964.23 2281.6 1932.55L2308.46 1869.01L2051.2 1321.44H2193.78L2368.9 1714.55Z" fill="white"/>
<path d="M2934.04 1321.44L3151 1897.94L3367.45 1321.44H3536.37V2073.58H3406.19V1825.62L3419.11 1493.97L3196.98 2073.58H3103.48L2881.86 1494.49L2894.78 1825.62V2073.58H2764.6V1321.44H2934.04Z" fill="white"/>
<path d="M4130.95 1737.8H3822.04V1969.23H4183.13V2073.58H3691.34V1321.44H4179.51V1426.82H3822.04V1634.48H4130.95V1737.8Z" fill="white"/>
<path d="M4420.24 1794.11V2073.58H4289.54V1321.44H4577.28C4661.31 1321.44 4727.95 1343.31 4777.19 1387.04C4826.79 1430.78 4851.58 1488.64 4851.58 1560.61C4851.58 1634.31 4827.3 1691.65 4778.74 1732.63C4730.53 1773.62 4662.86 1794.11 4575.73 1794.11H4420.24ZM4420.24 1689.24H4577.28C4623.77 1689.24 4659.24 1678.39 4683.69 1656.7C4708.14 1634.66 4720.37 1602.97 4720.37 1561.65C4720.37 1521.01 4707.97 1488.64 4683.18 1464.53C4658.38 1440.08 4624.29 1427.51 4580.89 1426.82H4420.24V1689.24Z" fill="white"/>
<path d="M5295.32 1898.46H5003.97L4943.02 2073.58H4807.16L5091.27 1321.44H5208.54L5493.17 2073.58H5356.8L5295.32 1898.46ZM5040.65 1793.07H5258.65L5149.65 1481.06L5040.65 1793.07Z" fill="white"/>
<path d="M6176.09 2073.58H6045.91V1739.35H5709.62V2073.58H5578.92V1321.44H5709.62V1634.48H6045.91V1321.44H6176.09V2073.58Z" fill="white"/>
<path d="M6812 1426.82H6464.86V2073.58H6334.68V1321.44H6812V1426.82Z" fill="white"/>
</svg>
