<svg width="48" height="48" viewBox="0 0 48 48" fill="none" xmlns="http://www.w3.org/2000/svg">
<path d="M1 1V47H47V1H1ZM44.2436 44.2422H3.76V3.76072H44.2436V44.2422Z" stroke="#4294CC" stroke-width="2"/>
<path fill-rule="evenodd" clip-rule="evenodd" d="M34.0886 18.1278C34.5664 18.6055 34.5664 19.3802 34.0886 19.8579L22.5617 31.3849C22.1712 31.7754 21.538 31.7754 21.1475 31.3849L14.2695 24.5069C13.7917 24.0291 13.7917 23.2545 14.2695 22.7767C14.7472 22.2989 15.5218 22.2989 15.9996 22.7767L21.1475 27.9246C21.538 28.3151 22.1712 28.3151 22.5617 27.9246L32.3585 18.1278C32.8362 17.65 33.6108 17.65 34.0886 18.1278Z" fill="#4294CC" stroke="#4294CC" stroke-width="2"/>
</svg>
