<svg width="24" height="24" viewBox="0 0 24 24" fill="none" xmlns="http://www.w3.org/2000/svg">
<path d="M0 3C0 1.34315 1.34315 0 3 0H21C22.6569 0 24 1.34315 24 3V21C24 22.6569 22.6569 24 21 24H3C1.34315 24 0 22.6569 0 21V3Z" fill="#4294CC"/>
<path d="M19.3439 15.1156L16.0054 13.0945C15.8057 12.9724 15.5594 12.9576 15.3459 13.0535C14.5495 13.4102 13.9613 14.095 13.6436 14.7775C13.0198 14.5056 11.9989 13.9429 10.9124 12.8651C9.83538 11.7997 9.25908 10.773 8.97663 10.1483C9.65279 9.82016 10.3261 9.22356 10.6727 8.42238C10.7655 8.2073 10.7479 7.95979 10.6242 7.76093L8.56913 4.43602C8.48021 4.292 8.34374 4.18517 8.18302 4.13224C7.1355 3.79078 6.00809 4.11746 5.1075 5.03262C2.87551 7.29882 4.12417 12.1794 7.89107 15.9115C10.3023 18.3017 13.2257 19.7286 15.7102 19.7286C16.9921 19.7286 18.0577 19.3366 18.79 18.5931C19.6915 17.6784 20.0053 16.5506 19.6506 15.4981C19.5974 15.3393 19.4885 15.2033 19.3439 15.1156ZM17.7762 17.5878C17.3178 18.0528 16.6036 18.2984 15.7111 18.2984C13.6242 18.2984 11.0127 16.9946 8.89484 14.8938C5.46698 11.4979 4.68335 7.5015 6.12411 6.03839C6.51593 5.64018 6.93959 5.42987 7.349 5.42987C7.40273 5.42987 7.45789 5.43368 7.51257 5.44084L9.19251 8.15771C8.86917 8.61696 8.33899 8.93934 7.94623 8.99656C7.74652 9.02613 7.56868 9.13868 7.45646 9.30654C7.34472 9.47536 7.3081 9.68281 7.35803 9.87929C7.378 9.95941 7.87775 11.8689 9.91051 13.8828C11.9414 15.8987 13.8519 16.3755 13.9323 16.3951C14.1277 16.4409 14.335 16.4046 14.5019 16.2897C14.6683 16.1753 14.7787 15.9955 14.8058 15.7952C14.8585 15.4003 15.1733 14.8638 15.627 14.5347L18.3558 16.1881C18.439 16.7661 18.0991 17.2597 17.7762 17.5878Z" fill="#F9F9F9"/>
</svg>
