<svg width="16" height="16" viewBox="0 0 16 16" fill="none" xmlns="http://www.w3.org/2000/svg">
<path d="M15.3439 11.1156L12.0054 9.09452C11.8057 8.97243 11.5594 8.95765 11.3459 9.0535C10.5495 9.41022 9.96128 10.095 9.64365 10.7775C9.01979 10.5056 7.9989 9.94291 6.91238 8.86513C5.83538 7.79975 5.25908 6.77299 4.97663 6.14826C5.65279 5.82016 6.32609 5.22356 6.67273 4.42238C6.76545 4.2073 6.74786 3.95979 6.62423 3.76093L4.56913 0.436022C4.48021 0.291999 4.34374 0.185175 4.18302 0.13224C3.1355 -0.209217 2.00809 0.117456 1.1075 1.03262C-1.12449 3.29882 0.124169 8.17936 3.89107 11.9115C6.30232 14.3017 9.22568 15.7286 11.7102 15.7286C12.9921 15.7286 14.0577 15.3366 14.79 14.5931C15.6915 13.6784 16.0053 12.5506 15.6506 11.4981C15.5974 11.3393 15.4885 11.2033 15.3439 11.1156ZM13.7762 13.5878C13.3178 14.0528 12.6036 14.2984 11.7111 14.2984C9.62415 14.2984 7.01271 12.9946 4.89484 10.8938C1.46698 7.49788 0.683355 3.5015 2.12411 2.03839C2.51593 1.64018 2.93959 1.42987 3.349 1.42987C3.40273 1.42987 3.45789 1.43368 3.51257 1.44084L5.19251 4.15771C4.86917 4.61696 4.33899 4.93934 3.94623 4.99656C3.74652 5.02613 3.56868 5.13868 3.45646 5.30654C3.34472 5.47536 3.3081 5.68281 3.35803 5.87929C3.378 5.95941 3.87775 7.8689 5.91051 9.88282C7.94136 11.8987 9.85191 12.3755 9.93227 12.3951C10.1277 12.4409 10.335 12.4046 10.5019 12.2897C10.6683 12.1753 10.7787 11.9955 10.8058 11.7952C10.8585 11.4003 11.1733 10.8638 11.627 10.5347L14.3558 12.1881C14.439 12.7661 14.0991 13.2597 13.7762 13.5878Z" fill="white"/>
</svg>
