<svg width="41" height="48" viewBox="0 0 41 48" fill="none" xmlns="http://www.w3.org/2000/svg">
<path d="M38.4816 8.48685V8.48688H38.4904C38.6927 8.48688 38.8372 8.63139 38.8372 8.83369V8.84433C38.8372 9.9961 38.8372 11.2227 38.8861 12.5016L38.8863 12.5172C38.9838 18.5357 39.0941 25.3456 36.817 31.5047C34.5759 37.5664 29.9822 43.0843 20.3951 46.3989C20.3639 46.4091 20.3341 46.4171 20.3083 46.4223C20.2987 46.4242 20.2913 46.4254 20.2859 46.4261C20.2855 46.426 20.2852 46.426 20.2847 46.4259C20.2696 46.4226 20.2484 46.4175 20.2092 46.4074C20.2009 46.4052 20.1905 46.4025 20.1786 46.3994C20.1613 46.3949 20.141 46.3896 20.1198 46.3841C10.5615 43.0679 5.97858 37.5575 3.74688 31.5057C1.47374 25.3416 1.59789 18.5239 1.71975 12.5035C1.76867 11.1759 1.76867 9.94847 1.76867 8.79413V8.78525C1.76867 8.58295 1.91317 8.43845 2.11547 8.43845C9.47621 8.43845 15.2408 6.30451 20.0203 1.67916L20.028 1.67175L20.0355 1.66422C20.0872 1.61251 20.1714 1.57274 20.2787 1.57274C20.3861 1.57274 20.4702 1.61251 20.5219 1.66422L20.5295 1.67175L20.5371 1.67916C25.3172 6.30503 31.0798 8.4365 38.4816 8.48685Z" stroke="white" stroke-width="2.6"/>
<path d="M25.9941 18.2302L18.0023 26.222L14.5634 22.7831C13.9337 22.1534 12.8681 22.1534 12.19 22.7831C11.5604 23.4127 11.5604 24.4783 12.19 25.1564L16.7914 29.7578C17.1304 30.0968 17.5179 30.2421 17.9538 30.2421C18.3897 30.2421 18.8257 30.0968 19.1163 29.7578L28.319 20.5551C28.9486 19.9254 28.9486 18.8598 28.319 18.1817C27.6893 17.5521 26.6238 17.5521 25.9941 18.2302Z" fill="white"/>
</svg>
