<svg width="268" height="396" viewBox="0 0 268 396" fill="none" xmlns="http://www.w3.org/2000/svg">
<path d="M241.93 160.065C199.139 135.858 157.028 94.2624 122.049 41.0747L121.709 40.7338C86.7295 53.0079 44.6183 45.848 1.82792 20.6179L0.129883 19.5951L2.50713 100.058C10.6577 224.845 53.1085 279.055 121.369 394.977L123.067 396C191.328 359.178 233.779 354.064 241.93 238.824L244.307 161.088L241.93 160.065Z" fill="#4294CC"/>
<path d="M266.381 141.313C223.591 117.106 181.48 75.5103 146.5 22.3227L146.161 21.9817C111.181 34.2558 69.07 27.0959 26.2796 1.86586L24.5815 0.843018L0.809082 19.5951L1.8279 20.277C44.6183 45.507 86.7295 52.6669 121.709 40.3928L122.049 40.7338C157.368 93.9214 199.139 135.517 241.93 160.065L243.628 161.088L241.25 238.824C235.817 314.173 216.12 342.471 183.857 363.269C223.931 339.403 259.589 304.967 265.363 220.413L267.74 142.677L266.381 141.313Z" fill="#DFDFDF"/>
<path d="M267.74 142.336L266.042 141.313C223.251 117.106 181.14 75.5104 146.161 22.3227L145.821 21.9818L121.709 40.3929L122.049 40.7338C157.368 93.9215 199.139 135.517 241.93 160.065L243.628 161.088L267.74 142.336Z" fill="#CECECE"/>
<path d="M243.628 160.747L241.251 238.483C235.817 313.832 216.12 342.13 183.857 362.928C223.931 339.062 259.59 304.626 265.363 220.072L267.74 142.336L243.628 160.747Z" fill="#323232"/>
<path d="M113.219 342.13C60.5803 254.166 33.7514 209.843 27.2989 113.014L25.9404 62.2134C59.9011 77.556 92.5033 82.6702 121.709 76.5331C151.255 116.424 183.858 149.496 217.818 173.362L216.46 222.458C210.007 311.786 183.518 325.424 130.539 352.018C127.822 353.382 125.106 354.745 122.049 356.45C118.993 351.677 116.276 346.904 113.219 342.13Z" fill="#3E3E3E"/>
<path fill-rule="evenodd" clip-rule="evenodd" d="M167.919 130.766C184.066 147.083 200.771 161.382 217.818 173.362L216.536 219.71L91.2676 305.189C73.9615 275.576 60.3485 250.281 50.1201 223.844L167.919 130.766Z" fill="#5B5B5B"/>
<path fill-rule="evenodd" clip-rule="evenodd" d="M145.051 106.282C147.084 108.66 149.128 111.005 151.184 113.318L41.7549 199.55C40.8252 196.408 39.938 193.229 39.0928 190.005L145.051 106.282Z" fill="#5B5B5B"/>
<path d="M134.614 348.267C131.898 349.631 129.181 350.995 126.124 352.7C123.407 347.926 120.351 343.153 117.634 338.721C64.6556 250.075 38.1663 205.752 31.7137 109.264L30.3553 64.2591C28.9969 63.5772 27.2989 62.8953 25.9404 62.2134L27.2989 113.014C33.7514 209.843 60.2407 254.166 113.219 342.13C115.936 346.904 118.653 351.336 121.709 356.109C124.426 354.745 127.483 353.382 130.2 351.677C151.934 340.767 168.915 331.902 182.159 319.628C169.934 330.538 153.972 338.38 134.614 348.267Z" fill="#111010"/>
<path d="M243.628 158.36C200.838 134.153 158.726 92.5576 123.747 39.37L123.407 39.029C88.4278 51.3031 46.3166 44.1432 3.52616 18.9132L1.82812 20.6179C44.6186 45.848 86.3902 53.0079 121.709 40.7338L122.049 41.0747C157.028 93.9214 199.14 135.517 241.93 160.065L243.628 161.088L241.251 238.824C236.836 301.217 222.233 331.561 199.14 351.677C223.252 331.22 238.534 301.217 242.949 237.119L245.326 159.383L243.628 158.36Z" fill="#272727"/>
</svg>
