<svg width="109" height="24" viewBox="0 0 109 24" fill="none" xmlns="http://www.w3.org/2000/svg">
<circle cx="12" cy="12" r="12" fill="black"/>
<path d="M12 22.4677C17.7814 22.4677 22.4681 17.7809 22.4681 11.9996C22.4681 6.21821 17.7814 1.53149 12 1.53149V22.4677Z" fill="white"/>
<path d="M12 1.53234C6.21864 1.53234 1.53192 6.21906 1.53192 12.0004C1.53192 17.7818 6.21864 22.4685 12 22.4685L12 1.53234Z" fill="black"/>
<path d="M12 16.8511C14.6792 16.8511 16.8511 14.6792 16.8511 12C16.8511 9.32082 14.6792 7.14893 12 7.14893V16.8511Z" fill="black"/>
<path d="M12 7.14895C9.32083 7.14895 7.14894 9.32084 7.14894 12C7.14894 14.6792 9.32083 16.8511 12 16.8511L12 7.14895Z" fill="white"/>
<path d="M36.476 16.192C35.812 16.192 35.232 16.08 34.736 15.856C34.24 15.624 33.828 15.308 33.5 14.908C33.172 14.508 32.924 14.036 32.756 13.492C32.596 12.948 32.516 12.364 32.516 11.74C32.516 11.116 32.604 10.532 32.78 9.988C32.956 9.436 33.212 8.956 33.548 8.548C33.892 8.14 34.316 7.82 34.82 7.588C35.324 7.348 35.908 7.228 36.572 7.228C37.02 7.228 37.444 7.288 37.844 7.408C38.244 7.528 38.6 7.704 38.912 7.936C39.224 8.168 39.484 8.46 39.692 8.812C39.9 9.156 40.036 9.556 40.1 10.012H38.96C38.832 9.404 38.548 8.948 38.108 8.644C37.676 8.34 37.16 8.188 36.56 8.188C36.048 8.188 35.608 8.284 35.24 8.476C34.88 8.668 34.58 8.928 34.34 9.256C34.108 9.576 33.936 9.944 33.824 10.36C33.712 10.776 33.656 11.208 33.656 11.656C33.656 12.144 33.712 12.608 33.824 13.048C33.936 13.48 34.108 13.86 34.34 14.188C34.58 14.508 34.884 14.764 35.252 14.956C35.62 15.148 36.06 15.244 36.572 15.244C36.94 15.244 37.272 15.184 37.568 15.064C37.864 14.936 38.116 14.764 38.324 14.548C38.54 14.324 38.708 14.06 38.828 13.756C38.948 13.452 39.02 13.124 39.044 12.772H40.184C40.072 13.86 39.7 14.704 39.068 15.304C38.444 15.896 37.58 16.192 36.476 16.192ZM41.4282 9.796H44.2962C44.5682 9.796 44.8282 9.816 45.0762 9.856C45.3322 9.896 45.5602 9.972 45.7602 10.084C45.9602 10.188 46.1202 10.34 46.2402 10.54C46.3602 10.74 46.4202 10.996 46.4202 11.308C46.4202 11.644 46.3402 11.916 46.1802 12.124C46.0202 12.332 45.7962 12.504 45.5082 12.64V12.652C45.8682 12.724 46.1522 12.892 46.3602 13.156C46.5762 13.42 46.6842 13.76 46.6842 14.176C46.6842 14.44 46.6362 14.684 46.5402 14.908C46.4522 15.132 46.3242 15.324 46.1562 15.484C45.9882 15.644 45.7882 15.772 45.5562 15.868C45.3242 15.956 45.0722 16 44.8002 16H41.4282V9.796ZM44.6082 15.136C44.9442 15.136 45.1962 15.04 45.3642 14.848C45.5402 14.648 45.6282 14.4 45.6282 14.104C45.6282 13.824 45.5362 13.6 45.3522 13.432C45.1682 13.264 44.8602 13.18 44.4282 13.18H42.4362V15.136H44.6082ZM44.1882 12.34C44.6282 12.34 44.9322 12.26 45.1002 12.1C45.2762 11.94 45.3642 11.728 45.3642 11.464C45.3642 11.208 45.2802 11.012 45.1122 10.876C44.9442 10.732 44.6362 10.66 44.1882 10.66H42.4362V12.34H44.1882ZM50.5486 16.132C50.0526 16.132 49.6166 16.052 49.2406 15.892C48.8726 15.732 48.5646 15.508 48.3166 15.22C48.0686 14.932 47.8806 14.588 47.7526 14.188C47.6326 13.788 47.5726 13.352 47.5726 12.88C47.5726 12.416 47.6446 11.988 47.7886 11.596C47.9326 11.196 48.1326 10.852 48.3886 10.564C48.6526 10.276 48.9606 10.052 49.3126 9.892C49.6726 9.732 50.0646 9.652 50.4886 9.652C51.0406 9.652 51.4966 9.768 51.8566 10C52.2246 10.224 52.5166 10.512 52.7326 10.864C52.9566 11.216 53.1086 11.6 53.1886 12.016C53.2766 12.432 53.3126 12.828 53.2966 13.204H48.6526C48.6446 13.476 48.6766 13.736 48.7486 13.984C48.8206 14.224 48.9366 14.44 49.0966 14.632C49.2566 14.816 49.4606 14.964 49.7086 15.076C49.9566 15.188 50.2486 15.244 50.5846 15.244C51.0166 15.244 51.3686 15.144 51.6406 14.944C51.9206 14.744 52.1046 14.44 52.1926 14.032H53.2006C53.0646 14.736 52.7646 15.264 52.3006 15.616C51.8366 15.96 51.2526 16.132 50.5486 16.132ZM52.2166 12.304C52.2006 12.064 52.1446 11.836 52.0486 11.62C51.9606 11.404 51.8366 11.22 51.6766 11.068C51.5246 10.908 51.3406 10.784 51.1246 10.696C50.9166 10.6 50.6846 10.552 50.4286 10.552C50.1646 10.552 49.9246 10.6 49.7086 10.696C49.5006 10.784 49.3206 10.908 49.1686 11.068C49.0166 11.228 48.8966 11.416 48.8086 11.632C48.7206 11.84 48.6686 12.064 48.6526 12.304H52.2166ZM55.8539 10.696H53.6339V9.796H59.0939V10.696H56.8739V16H55.8539V10.696ZM59.8606 16.072C59.7566 16.072 59.6486 16.06 59.5366 16.036C59.4246 16.02 59.3326 16.004 59.2606 15.988V15.088C59.3406 15.112 59.4126 15.128 59.4766 15.136C59.5486 15.144 59.6166 15.148 59.6806 15.148C59.9446 15.148 60.1446 15.044 60.2806 14.836C60.4246 14.628 60.5286 14.308 60.5926 13.876C60.6646 13.444 60.7086 12.892 60.7246 12.22C60.7406 11.54 60.7566 10.732 60.7726 9.796H65.1286V16H64.1086V10.696H61.7566C61.7326 11.424 61.7046 12.116 61.6726 12.772C61.6486 13.42 61.5806 13.988 61.4686 14.476C61.3566 14.964 61.1766 15.352 60.9286 15.64C60.6806 15.928 60.3246 16.072 59.8606 16.072ZM68.3863 16.132C68.1063 16.132 67.8423 16.1 67.5943 16.036C67.3463 15.98 67.1263 15.884 66.9343 15.748C66.7503 15.604 66.6023 15.424 66.4903 15.208C66.3863 14.984 66.3343 14.716 66.3343 14.404C66.3343 14.052 66.3943 13.764 66.5143 13.54C66.6343 13.316 66.7903 13.136 66.9823 13C67.1823 12.856 67.4063 12.748 67.6543 12.676C67.9103 12.604 68.1703 12.544 68.4343 12.496C68.7143 12.44 68.9783 12.4 69.2263 12.376C69.4823 12.344 69.7063 12.304 69.8983 12.256C70.0903 12.2 70.2423 12.124 70.3543 12.028C70.4663 11.924 70.5223 11.776 70.5223 11.584C70.5223 11.36 70.4783 11.18 70.3903 11.044C70.3103 10.908 70.2023 10.804 70.0663 10.732C69.9383 10.66 69.7903 10.612 69.6223 10.588C69.4623 10.564 69.3023 10.552 69.1423 10.552C68.7103 10.552 68.3503 10.636 68.0623 10.804C67.7743 10.964 67.6183 11.272 67.5943 11.728H66.5743C66.5903 11.344 66.6703 11.02 66.8143 10.756C66.9583 10.492 67.1503 10.28 67.3903 10.12C67.6303 9.952 67.9023 9.832 68.2063 9.76C68.5183 9.688 68.8503 9.652 69.2023 9.652C69.4823 9.652 69.7583 9.672 70.0303 9.712C70.3103 9.752 70.5623 9.836 70.7863 9.964C71.0103 10.084 71.1903 10.256 71.3263 10.48C71.4623 10.704 71.5303 10.996 71.5303 11.356V14.548C71.5303 14.788 71.5423 14.964 71.5663 15.076C71.5983 15.188 71.6943 15.244 71.8543 15.244C71.9263 15.244 72.0303 15.224 72.1663 15.184V15.976C71.9903 16.08 71.7463 16.132 71.4343 16.132C71.1703 16.132 70.9583 16.06 70.7983 15.916C70.6463 15.764 70.5703 15.52 70.5703 15.184C70.2903 15.52 69.9623 15.764 69.5863 15.916C69.2183 16.06 68.8183 16.132 68.3863 16.132ZM68.6143 15.244C68.9503 15.244 69.2383 15.2 69.4783 15.112C69.7183 15.016 69.9143 14.9 70.0663 14.764C70.2183 14.62 70.3303 14.468 70.4023 14.308C70.4743 14.14 70.5103 13.984 70.5103 13.84V12.796C70.3823 12.9 70.2143 12.972 70.0063 13.012C69.7983 13.052 69.5783 13.088 69.3463 13.12C69.1223 13.152 68.8943 13.184 68.6623 13.216C68.4303 13.248 68.2223 13.304 68.0383 13.384C67.8543 13.464 67.7023 13.58 67.5823 13.732C67.4703 13.876 67.4143 14.076 67.4143 14.332C67.4143 14.5 67.4463 14.644 67.5103 14.764C67.5823 14.876 67.6703 14.968 67.7743 15.04C67.8863 15.112 68.0143 15.164 68.1583 15.196C68.3023 15.228 68.4543 15.244 68.6143 15.244ZM74.4237 13.576C73.9837 13.512 73.6237 13.312 73.3437 12.976C73.0637 12.64 72.9237 12.216 72.9237 11.704C72.9237 11.12 73.0957 10.656 73.4397 10.312C73.7917 9.968 74.2677 9.796 74.8677 9.796H78.0117V16H76.9917V13.612H75.6357L73.7397 16H72.3837L74.4237 13.576ZM76.9917 12.736V10.696H75.1917C74.7597 10.696 74.4477 10.788 74.2557 10.972C74.0637 11.156 73.9677 11.404 73.9677 11.716C73.9677 12.036 74.0637 12.288 74.2557 12.472C74.4477 12.648 74.7597 12.736 75.1917 12.736H76.9917ZM84.3891 10.696H82.1691V9.796H87.6291V10.696H85.4091V16H84.3891V10.696ZM91.0838 16.132C90.5878 16.132 90.1518 16.052 89.7758 15.892C89.4078 15.732 89.0998 15.508 88.8518 15.22C88.6038 14.932 88.4158 14.588 88.2878 14.188C88.1678 13.788 88.1078 13.352 88.1078 12.88C88.1078 12.416 88.1798 11.988 88.3238 11.596C88.4678 11.196 88.6678 10.852 88.9238 10.564C89.1878 10.276 89.4958 10.052 89.8478 9.892C90.2078 9.732 90.5998 9.652 91.0238 9.652C91.5758 9.652 92.0318 9.768 92.3918 10C92.7598 10.224 93.0518 10.512 93.2678 10.864C93.4918 11.216 93.6438 11.6 93.7238 12.016C93.8118 12.432 93.8478 12.828 93.8318 13.204H89.1878C89.1798 13.476 89.2118 13.736 89.2838 13.984C89.3558 14.224 89.4718 14.44 89.6318 14.632C89.7918 14.816 89.9958 14.964 90.2438 15.076C90.4918 15.188 90.7838 15.244 91.1198 15.244C91.5518 15.244 91.9038 15.144 92.1758 14.944C92.4558 14.744 92.6398 14.44 92.7278 14.032H93.7358C93.5998 14.736 93.2998 15.264 92.8358 15.616C92.3718 15.96 91.7878 16.132 91.0838 16.132ZM92.7518 12.304C92.7358 12.064 92.6798 11.836 92.5838 11.62C92.4958 11.404 92.3718 11.22 92.2118 11.068C92.0598 10.908 91.8758 10.784 91.6598 10.696C91.4518 10.6 91.2198 10.552 90.9638 10.552C90.6998 10.552 90.4598 10.6 90.2438 10.696C90.0358 10.784 89.8558 10.908 89.7038 11.068C89.5518 11.228 89.4318 11.416 89.3438 11.632C89.2558 11.84 89.2038 12.064 89.1878 12.304H92.7518ZM94.8891 9.796H96.3531L98.2371 14.824H98.2611L100.145 9.796H101.609V16H100.589V11.08L98.7171 16H97.7811L95.9091 11.08V16H94.8891V9.796ZM104.867 16.132C104.587 16.132 104.323 16.1 104.075 16.036C103.827 15.98 103.607 15.884 103.415 15.748C103.231 15.604 103.083 15.424 102.971 15.208C102.867 14.984 102.815 14.716 102.815 14.404C102.815 14.052 102.875 13.764 102.995 13.54C103.115 13.316 103.271 13.136 103.463 13C103.663 12.856 103.887 12.748 104.135 12.676C104.391 12.604 104.651 12.544 104.915 12.496C105.195 12.44 105.459 12.4 105.707 12.376C105.963 12.344 106.187 12.304 106.379 12.256C106.571 12.2 106.723 12.124 106.835 12.028C106.947 11.924 107.003 11.776 107.003 11.584C107.003 11.36 106.959 11.18 106.871 11.044C106.791 10.908 106.683 10.804 106.547 10.732C106.419 10.66 106.271 10.612 106.103 10.588C105.943 10.564 105.783 10.552 105.623 10.552C105.191 10.552 104.831 10.636 104.543 10.804C104.255 10.964 104.099 11.272 104.075 11.728H103.055C103.071 11.344 103.151 11.02 103.295 10.756C103.439 10.492 103.631 10.28 103.871 10.12C104.111 9.952 104.383 9.832 104.687 9.76C104.999 9.688 105.331 9.652 105.683 9.652C105.963 9.652 106.239 9.672 106.511 9.712C106.791 9.752 107.043 9.836 107.267 9.964C107.491 10.084 107.671 10.256 107.807 10.48C107.943 10.704 108.011 10.996 108.011 11.356V14.548C108.011 14.788 108.023 14.964 108.047 15.076C108.079 15.188 108.175 15.244 108.335 15.244C108.407 15.244 108.511 15.224 108.647 15.184V15.976C108.471 16.08 108.227 16.132 107.915 16.132C107.651 16.132 107.439 16.06 107.279 15.916C107.127 15.764 107.051 15.52 107.051 15.184C106.771 15.52 106.443 15.764 106.067 15.916C105.699 16.06 105.299 16.132 104.867 16.132ZM105.095 15.244C105.431 15.244 105.719 15.2 105.959 15.112C106.199 15.016 106.395 14.9 106.547 14.764C106.699 14.62 106.811 14.468 106.883 14.308C106.955 14.14 106.991 13.984 106.991 13.84V12.796C106.863 12.9 106.695 12.972 106.487 13.012C106.279 13.052 106.059 13.088 105.827 13.12C105.603 13.152 105.375 13.184 105.143 13.216C104.911 13.248 104.703 13.304 104.519 13.384C104.335 13.464 104.183 13.58 104.063 13.732C103.951 13.876 103.895 14.076 103.895 14.332C103.895 14.5 103.927 14.644 103.991 14.764C104.063 14.876 104.151 14.968 104.255 15.04C104.367 15.112 104.495 15.164 104.639 15.196C104.783 15.228 104.935 15.244 105.095 15.244Z" fill="white"/>
</svg>
