<svg width="25" height="24" viewBox="0 0 25 24" fill="none" xmlns="http://www.w3.org/2000/svg">
<circle cx="12.5" cy="12" r="12" fill="black"/>
<path d="M12.5 22.4674C18.2814 22.4674 22.9681 17.7807 22.9681 11.9993C22.9681 6.21797 18.2814 1.53125 12.5 1.53125V22.4674Z" fill="black"/>
<path d="M12.5 1.53258C6.71864 1.53258 2.03192 6.2193 2.03192 12.0007C2.03192 17.782 6.71864 22.4687 12.5 22.4688L12.5 1.53258Z" fill="white"/>
<path d="M12.5 16.8511C15.1792 16.8511 17.3511 14.6792 17.3511 12C17.3511 9.32082 15.1792 7.14893 12.5 7.14893V16.8511Z" fill="white"/>
<path d="M12.5 7.14895C9.82083 7.14895 7.64894 9.32084 7.64894 12C7.64894 14.6792 9.82083 16.8511 12.5 16.8511L12.5 7.14895Z" fill="black"/>
</svg>
