<svg width="104" height="24" viewBox="0 0 104 24" fill="none" xmlns="http://www.w3.org/2000/svg">
<g clip-path="url(#clip0)">
<circle cx="12" cy="12" r="12" transform="rotate(-180 12 12)" fill="black"/>
<path d="M12 1.53234C6.21864 1.53234 1.53192 6.21906 1.53192 12.0004C1.53192 17.7818 6.21864 22.4685 12 22.4685L12 1.53234Z" fill="white"/>
<path d="M12 22.4677C17.7814 22.4677 22.4681 17.7809 22.4681 11.9996C22.4681 6.21822 17.7814 1.5315 12 1.53149L12 22.4677Z" fill="black"/>
<path d="M12 7.14895C9.32083 7.14895 7.14894 9.32084 7.14894 12C7.14894 14.6792 9.32083 16.8511 12 16.8511L12 7.14895Z" fill="black"/>
<path d="M12 16.8508C14.6792 16.8508 16.8511 14.6789 16.8511 11.9997C16.8511 9.32058 14.6792 7.14868 12 7.14868L12 16.8508Z" fill="white"/>
</g>
<path d="M34.88 8.392H32.024V7.432H38.876V8.392H36.02V16H34.88V8.392ZM42.2986 16.132C41.8026 16.132 41.3666 16.052 40.9906 15.892C40.6226 15.732 40.3146 15.508 40.0666 15.22C39.8186 14.932 39.6306 14.588 39.5026 14.188C39.3826 13.788 39.3226 13.352 39.3226 12.88C39.3226 12.416 39.3946 11.988 39.5386 11.596C39.6826 11.196 39.8826 10.852 40.1386 10.564C40.4026 10.276 40.7106 10.052 41.0626 9.892C41.4226 9.732 41.8146 9.652 42.2386 9.652C42.7906 9.652 43.2466 9.768 43.6066 10C43.9746 10.224 44.2666 10.512 44.4826 10.864C44.7066 11.216 44.8586 11.6 44.9386 12.016C45.0266 12.432 45.0626 12.828 45.0466 13.204H40.4026C40.3946 13.476 40.4266 13.736 40.4986 13.984C40.5706 14.224 40.6866 14.44 40.8466 14.632C41.0066 14.816 41.2106 14.964 41.4586 15.076C41.7066 15.188 41.9986 15.244 42.3346 15.244C42.7666 15.244 43.1186 15.144 43.3906 14.944C43.6706 14.744 43.8546 14.44 43.9426 14.032H44.9506C44.8146 14.736 44.5146 15.264 44.0506 15.616C43.5866 15.96 43.0026 16.132 42.2986 16.132ZM43.9666 12.304C43.9506 12.064 43.8946 11.836 43.7986 11.62C43.7106 11.404 43.5866 11.22 43.4266 11.068C43.2746 10.908 43.0906 10.784 42.8746 10.696C42.6666 10.6 42.4346 10.552 42.1786 10.552C41.9146 10.552 41.6746 10.6 41.4586 10.696C41.2506 10.784 41.0706 10.908 40.9186 11.068C40.7666 11.228 40.6466 11.416 40.5586 11.632C40.4706 11.84 40.4186 12.064 40.4026 12.304H43.9666ZM46.1039 9.796H47.5679L49.4519 14.824H49.4759L51.3599 9.796H52.8239V16H51.8039V11.08L49.9319 16H48.9959L47.1239 11.08V16H46.1039V9.796ZM54.3657 9.796H55.3857V12.268H58.5297V9.796H59.5497V16H58.5297V13.144H55.3857V16H54.3657V9.796ZM62.7965 16.132C62.5165 16.132 62.2525 16.1 62.0045 16.036C61.7565 15.98 61.5365 15.884 61.3445 15.748C61.1605 15.604 61.0125 15.424 60.9005 15.208C60.7965 14.984 60.7445 14.716 60.7445 14.404C60.7445 14.052 60.8045 13.764 60.9245 13.54C61.0445 13.316 61.2005 13.136 61.3925 13C61.5925 12.856 61.8165 12.748 62.0645 12.676C62.3205 12.604 62.5805 12.544 62.8445 12.496C63.1245 12.44 63.3885 12.4 63.6365 12.376C63.8925 12.344 64.1165 12.304 64.3085 12.256C64.5005 12.2 64.6525 12.124 64.7645 12.028C64.8765 11.924 64.9325 11.776 64.9325 11.584C64.9325 11.36 64.8885 11.18 64.8005 11.044C64.7205 10.908 64.6125 10.804 64.4765 10.732C64.3485 10.66 64.2005 10.612 64.0325 10.588C63.8725 10.564 63.7125 10.552 63.5525 10.552C63.1205 10.552 62.7605 10.636 62.4725 10.804C62.1845 10.964 62.0285 11.272 62.0045 11.728H60.9845C61.0005 11.344 61.0805 11.02 61.2245 10.756C61.3685 10.492 61.5605 10.28 61.8005 10.12C62.0405 9.952 62.3125 9.832 62.6165 9.76C62.9285 9.688 63.2605 9.652 63.6125 9.652C63.8925 9.652 64.1685 9.672 64.4405 9.712C64.7205 9.752 64.9725 9.836 65.1965 9.964C65.4205 10.084 65.6005 10.256 65.7365 10.48C65.8725 10.704 65.9405 10.996 65.9405 11.356V14.548C65.9405 14.788 65.9525 14.964 65.9765 15.076C66.0085 15.188 66.1045 15.244 66.2645 15.244C66.3365 15.244 66.4405 15.224 66.5765 15.184V15.976C66.4005 16.08 66.1565 16.132 65.8445 16.132C65.5805 16.132 65.3685 16.06 65.2085 15.916C65.0565 15.764 64.9805 15.52 64.9805 15.184C64.7005 15.52 64.3725 15.764 63.9965 15.916C63.6285 16.06 63.2285 16.132 62.7965 16.132ZM63.0245 15.244C63.3605 15.244 63.6485 15.2 63.8885 15.112C64.1285 15.016 64.3245 14.9 64.4765 14.764C64.6285 14.62 64.7405 14.468 64.8125 14.308C64.8845 14.14 64.9205 13.984 64.9205 13.84V12.796C64.7925 12.9 64.6245 12.972 64.4165 13.012C64.2085 13.052 63.9885 13.088 63.7565 13.12C63.5325 13.152 63.3045 13.184 63.0725 13.216C62.8405 13.248 62.6325 13.304 62.4485 13.384C62.2645 13.464 62.1125 13.58 61.9925 13.732C61.8805 13.876 61.8245 14.076 61.8245 14.332C61.8245 14.5 61.8565 14.644 61.9205 14.764C61.9925 14.876 62.0805 14.968 62.1845 15.04C62.2965 15.112 62.4245 15.164 62.5685 15.196C62.7125 15.228 62.8645 15.244 63.0245 15.244ZM68.8338 13.576C68.3938 13.512 68.0338 13.312 67.7538 12.976C67.4738 12.64 67.3338 12.216 67.3338 11.704C67.3338 11.12 67.5058 10.656 67.8498 10.312C68.2018 9.968 68.6778 9.796 69.2778 9.796H72.4218V16H71.4018V13.612H70.0458L68.1498 16H66.7938L68.8338 13.576ZM71.4018 12.736V10.696H69.6018C69.1698 10.696 68.8578 10.788 68.6658 10.972C68.4738 11.156 68.3778 11.404 68.3778 11.716C68.3778 12.036 68.4738 12.288 68.6658 12.472C68.8578 12.648 69.1698 12.736 69.6018 12.736H71.4018ZM78.7993 10.696H76.5793V9.796H82.0393V10.696H79.8193V16H78.7993V10.696ZM85.4939 16.132C84.9979 16.132 84.5619 16.052 84.1859 15.892C83.8179 15.732 83.5099 15.508 83.2619 15.22C83.0139 14.932 82.8259 14.588 82.6979 14.188C82.5779 13.788 82.5179 13.352 82.5179 12.88C82.5179 12.416 82.5899 11.988 82.7339 11.596C82.8779 11.196 83.0779 10.852 83.3339 10.564C83.5979 10.276 83.9059 10.052 84.2579 9.892C84.6179 9.732 85.0099 9.652 85.4339 9.652C85.9859 9.652 86.4419 9.768 86.8019 10C87.1699 10.224 87.4619 10.512 87.6779 10.864C87.9019 11.216 88.0539 11.6 88.1339 12.016C88.2219 12.432 88.2579 12.828 88.2419 13.204H83.5979C83.5899 13.476 83.6219 13.736 83.6939 13.984C83.7659 14.224 83.8819 14.44 84.0419 14.632C84.2019 14.816 84.4059 14.964 84.6539 15.076C84.9019 15.188 85.1939 15.244 85.5299 15.244C85.9619 15.244 86.3139 15.144 86.5859 14.944C86.8659 14.744 87.0499 14.44 87.1379 14.032H88.1459C88.0099 14.736 87.7099 15.264 87.2459 15.616C86.7819 15.96 86.1979 16.132 85.4939 16.132ZM87.1619 12.304C87.1459 12.064 87.0899 11.836 86.9939 11.62C86.9059 11.404 86.7819 11.22 86.6219 11.068C86.4699 10.908 86.2859 10.784 86.0699 10.696C85.8619 10.6 85.6299 10.552 85.3739 10.552C85.1099 10.552 84.8699 10.6 84.6539 10.696C84.4459 10.784 84.2659 10.908 84.1139 11.068C83.9619 11.228 83.8419 11.416 83.7539 11.632C83.6659 11.84 83.6139 12.064 83.5979 12.304H87.1619ZM89.2993 9.796H90.7633L92.6473 14.824H92.6713L94.5553 9.796H96.0193V16H94.9993V11.08L93.1273 16H92.1913L90.3193 11.08V16H89.2993V9.796ZM99.277 16.132C98.997 16.132 98.733 16.1 98.485 16.036C98.237 15.98 98.017 15.884 97.825 15.748C97.641 15.604 97.493 15.424 97.381 15.208C97.277 14.984 97.225 14.716 97.225 14.404C97.225 14.052 97.285 13.764 97.405 13.54C97.525 13.316 97.681 13.136 97.873 13C98.073 12.856 98.297 12.748 98.545 12.676C98.801 12.604 99.061 12.544 99.325 12.496C99.605 12.44 99.869 12.4 100.117 12.376C100.373 12.344 100.597 12.304 100.789 12.256C100.981 12.2 101.133 12.124 101.245 12.028C101.357 11.924 101.413 11.776 101.413 11.584C101.413 11.36 101.369 11.18 101.281 11.044C101.201 10.908 101.093 10.804 100.957 10.732C100.829 10.66 100.681 10.612 100.513 10.588C100.353 10.564 100.193 10.552 100.033 10.552C99.601 10.552 99.241 10.636 98.953 10.804C98.665 10.964 98.509 11.272 98.485 11.728H97.465C97.481 11.344 97.561 11.02 97.705 10.756C97.849 10.492 98.041 10.28 98.281 10.12C98.521 9.952 98.793 9.832 99.097 9.76C99.409 9.688 99.741 9.652 100.093 9.652C100.373 9.652 100.649 9.672 100.921 9.712C101.201 9.752 101.453 9.836 101.677 9.964C101.901 10.084 102.081 10.256 102.217 10.48C102.353 10.704 102.421 10.996 102.421 11.356V14.548C102.421 14.788 102.433 14.964 102.457 15.076C102.489 15.188 102.585 15.244 102.745 15.244C102.817 15.244 102.921 15.224 103.057 15.184V15.976C102.881 16.08 102.637 16.132 102.325 16.132C102.061 16.132 101.849 16.06 101.689 15.916C101.537 15.764 101.461 15.52 101.461 15.184C101.181 15.52 100.853 15.764 100.477 15.916C100.109 16.06 99.709 16.132 99.277 16.132ZM99.505 15.244C99.841 15.244 100.129 15.2 100.369 15.112C100.609 15.016 100.805 14.9 100.957 14.764C101.109 14.62 101.221 14.468 101.293 14.308C101.365 14.14 101.401 13.984 101.401 13.84V12.796C101.273 12.9 101.105 12.972 100.897 13.012C100.689 13.052 100.469 13.088 100.237 13.12C100.013 13.152 99.785 13.184 99.553 13.216C99.321 13.248 99.113 13.304 98.929 13.384C98.745 13.464 98.593 13.58 98.473 13.732C98.361 13.876 98.305 14.076 98.305 14.332C98.305 14.5 98.337 14.644 98.401 14.764C98.473 14.876 98.561 14.968 98.665 15.04C98.777 15.112 98.905 15.164 99.049 15.196C99.193 15.228 99.345 15.244 99.505 15.244Z" fill="white"/>
<defs>
<clipPath id="clip0">
<rect width="24" height="24" fill="white" transform="translate(24 24) rotate(-180)"/>
</clipPath>
</defs>
</svg>
